<svg xmlns="http://www.w3.org/2000/svg" viewBox="0 0 500 500"><path d="m48.86 150.56 227.97 32.82 30.59 30.87-258.56-63.69z" fill="#fff"/><path d="m48.86 150.56 227.97 32.82 30.59 30.87-258.56-63.69z" fill="#fff" opacity=".6"/><path d="m48.86 150.56 227.97 32.82-10.58 44.64-217.39-77.46z" fill="#fff"/><path d="m48.86 150.56 227.97 32.82-10.58 44.64-217.39-77.46z" opacity=".2"/><path d="m261.57 98.88 13.23 62a6.25 6.25 0 0 1-4.8 7.41l-118.08 25.2a6.26 6.26 0 0 1-7.41-4.8l-13.24-62a6.26 6.26 0 0 1 4.81-7.41l118.08-25.2a6.26 6.26 0 0 1 7.41 4.81z" fill="#fff"/><path d="m261.57 98.88 13.23 62a6.25 6.25 0 0 1-4.8 7.41l-118.08 25.2a6.26 6.26 0 0 1-7.41-4.8l-13.24-62a6.26 6.26 0 0 1 4.81-7.41l118.08-25.2a6.26 6.26 0 0 1 7.41 4.81z" opacity=".4"/><path d="m258.66 94.82-39.45 48.43a25.43 25.43 0 0 1-31.15 6.65l-55.79-28.1a6.22 6.22 0 0 1 3.81-2.53l118.08-25.2a6.23 6.23 0 0 1 4.5.75zm-209.8 55.74 188.03 44.69 29.36 32.77-217.39-77.46z" fill="#fff"/><path d="m48.86 150.56 188.03 44.69 29.36 32.77-217.39-77.46z" fill="#fff" opacity=".6"/><path d="m116.943 194.499.506-.863 20.924 12.257-.505.862zm30.163 17.66.505-.863 7.525 4.407-.506.863zM48.86 150.56l188.03 44.69-36.55 44.05-151.48-88.74zm251.5 104.7a2 2 0 0 1-.74-.14L269 243a2 2 0 0 1 1.47-3.72l30.63 12.12a2 2 0 0 1-.74 3.86z" fill="#fff"/><path d="M300.36 255.26a2 2 0 0 1-.74-.14L269 243a2 2 0 0 1 1.47-3.72l30.63 12.12a2 2 0 0 1-.74 3.86z" opacity=".3"/><path d="M298.55 237.7a1.91 1.91 0 0 1-.73-.15L281.37 231a2 2 0 1 1 1.47-3.72l16.45 6.52a2 2 0 0 1 1.13 2.59 2 2 0 0 1-1.87 1.31z" fill="#fff"/><path d="M298.55 237.7a1.91 1.91 0 0 1-.73-.15L281.37 231a2 2 0 1 1 1.47-3.72l16.45 6.52a2 2 0 0 1 1.13 2.59 2 2 0 0 1-1.87 1.31z" fill="#fff" opacity=".5"/><path d="M264.16 255a2.1 2.1 0 0 1-.73-.14L233.56 243a2 2 0 1 1 1.47-3.72l29.87 11.82a2 2 0 0 1-.74 3.86z" fill="#fff"/><path d="M264.16 255a2.1 2.1 0 0 1-.73-.14L233.56 243a2 2 0 1 1 1.47-3.72l29.87 11.82a2 2 0 0 1-.74 3.86z" opacity=".3"/><path d="M372.3 164.82c2.65 5.17 5.08 10.35 7.39 15.65s4.46 10.67 6.34 16.3l.68 2.13c.12.38.29 1 .39 1.44s.19.94.24 1.36a35.31 35.31 0 0 1 .35 4.87 87.3 87.3 0 0 1-.42 9 144.16 144.16 0 0 1-2.72 17.22l-5.49-.61c-.07-5.63-.12-11.32-.32-16.87-.09-2.76-.25-5.53-.53-8.13a30.52 30.52 0 0 0-.6-3.63c-.05-.28-.13-.49-.19-.72s-.12-.31-.22-.61l-.76-1.89c-2.09-5.06-4.44-10.16-6.84-15.24l-7.26-15.24z" fill="#e4897b"/><path d="m379.14 230.42-2.56 4.79 8.18 2.28s1.56-3.85-.3-6.89zm-5.69 11.69 7.52.6 3.79-5.22-8.18-2.28-3.13 6.9z" fill="#e4897b"/><path d="M337.87 130.26c-.11.59-.52 1-.9.92s-.59-.61-.47-1.19.52-1 .9-.92.6.61.47 1.19z" fill="#263238"/><path d="M337.41 131.26a21.34 21.34 0 0 1-3.79 4.41 3.44 3.44 0 0 0 2.67 1.08z" fill="#de5753"/><path d="M340.65 127.47a.36.36 0 0 1-.25-.11 2.78 2.78 0 0 0-2.33-.94.35.35 0 0 1-.12-.68 3.4 3.4 0 0 1 3 1.15.35.35 0 0 1 0 .49.36.36 0 0 1-.3.09z" fill="#263238"/><path d="M354.41 138.43c-1.05 5.38-2.1 15.22 1.66 18.81 0 0-1.47 5.45-11.46 5.45-11 0-5.24-5.45-5.24-5.45 6-1.43 5.83-5.88 4.79-10.05z" fill="#e4897b"/><path d="M357.58 160.63c.79-2.63 1.66-5.64-.14-6.59-2-1-12.87-2.1-16.62-.15s-2.68 7.3-2.68 7.3z" fill="#263238"/><path d="M380.64 410a2.35 2.35 0 0 1-1.76-.48.71.71 0 0 1 0-.83.83.83 0 0 1 .55-.41c1.08-.24 3.1 1.14 3.19 1.2a.2.2 0 0 1 .07.18.16.16 0 0 1-.13.13 9.34 9.34 0 0 1-1.92.21zm-.92-1.4h-.21a.47.47 0 0 0-.32.24c-.16.28-.06.4 0 .44.31.42 1.81.42 2.91.24a5.78 5.78 0 0 0-2.38-.9z" fill="#fff"/><path d="M382.52 409.82h-.08c-.76-.42-2.23-2-2.08-2.84a.57.57 0 0 1 .56-.46 1 1 0 0 1 .74.22c.85.7 1 2.82 1 2.91a.16.16 0 0 1-.08.16.14.14 0 0 1-.06.01zm-1.48-3H381c-.23 0-.25.14-.26.18-.09.49.85 1.7 1.6 2.27a4.19 4.19 0 0 0-.86-2.3.64.64 0 0 0-.48-.13zM336.53 410c-.94 0-1.85-.13-2.16-.55a.66.66 0 0 1 0-.76.88.88 0 0 1 .56-.41c1.21-.33 3.79 1.13 3.9 1.19a.18.18 0 0 1 .08.18.17.17 0 0 1-.14.14 12.17 12.17 0 0 1-2.24.21zm-1.17-1.42a1.15 1.15 0 0 0-.33 0 .51.51 0 0 0-.34.24c-.13.22-.08.32 0 .38.33.46 2.19.49 3.57.3a7.87 7.87 0 0 0-2.9-.9z" fill="#fff"/><path d="M338.75 409.82h-.07c-.89-.39-2.64-2-2.51-2.81 0-.2.17-.44.65-.49a1.22 1.22 0 0 1 1 .3c.94.76 1.13 2.74 1.14 2.83a.17.17 0 0 1-.07.16.17.17 0 0 1-.14.01zm-1.79-3h-.11c-.31 0-.33.16-.34.2-.08.5 1.12 1.75 2 2.29a4 4 0 0 0-1-2.26.87.87 0 0 0-.51-.21z" fill="#fff"/><path d="M346.83 409.64h-7.35l-.73-17.01h7.35l.73 17.01zm44.11 0h-7.35l-3.69-17.01h7.34l3.7 17.01z" fill="#e4897b"/><path d="M383.07 408.79h8.25a.65.65 0 0 1 .63.51l1.45 6.53a1.08 1.08 0 0 1-1.08 1.3c-2.88-.05-4.28-.22-7.91-.22-2.23 0-6.83.24-9.92.24s-3.48-3-2.22-3.33c5.66-1.24 7.79-2.95 9.6-4.57a1.78 1.78 0 0 1 1.2-.46zm-43.54 0h8a.65.65 0 0 1 .63.51l1.45 6.53a1.07 1.07 0 0 1-1.06 1.3c-2.89-.05-7.07-.22-10.71-.22-4.25 0-7.93.24-12.92.24-3 0-3.85-3-2.59-3.33 5.75-1.26 10.44-1.39 15.41-4.45a3.36 3.36 0 0 1 1.79-.58z" fill="#263238"/><path d="M336 170.14a169.18 169.18 0 0 1-18.31-2.43c-3-.58-6.06-1.23-9.1-2.05a73.14 73.14 0 0 1-9.16-3c-.77-.32-1.55-.67-2.32-1a20.47 20.47 0 0 1-2.5-1.46c-1.44-.95-2.68-1.94-3.91-2.92-2.45-2-4.72-4-7-6.05-4.47-4.14-8.71-8.42-12.8-12.92l3.68-4.11 14.51 10.43c2.39 1.72 4.81 3.41 7.19 5 1.18.79 2.39 1.53 3.5 2.16a12.16 12.16 0 0 0 1.44.7c.59.23 1.19.46 1.82.68a108 108 0 0 0 16.53 3.7c5.71.9 11.61 1.64 17.31 2.24z" fill="#e4897b"/><path d="M369.22 158.9c6.89 1.58 13.85 21.71 13.85 21.71l-14.17 10.17s-4-9.38-7.86-17.58c-4.04-8.59 1.14-15.91 8.18-14.3z" fill="#fff"/><path d="M369.22 158.9c6.89 1.58 13.85 21.71 13.85 21.71l-14.17 10.17s-4-9.38-7.86-17.58c-4.04-8.59 1.14-15.91 8.18-14.3z" opacity=".4"/><path d="m365.25 169.9-2.81 6.29c2.91 6.28 5.57 12.5 6.28 14.16-.1-7.43-1.51-16.65-3.47-20.45z" fill="#fff"/><path d="m365.25 169.9-2.81 6.29c2.91 6.28 5.57 12.5 6.28 14.16-.1-7.43-1.51-16.65-3.47-20.45z" opacity=".6"/><path d="M328.07 159.28s-7.82 8.83-.44 63.5h39.29c.28-6-3.51-35.46 2.3-63.88a102.56 102.56 0 0 0-13.15-1.66 145.27 145.27 0 0 0-16.7 0 73.5 73.5 0 0 0-11.3 2.04z" fill="#fff"/><path d="M328.07 159.28s-7.82 8.83-.44 63.5h39.29c.28-6-3.51-35.46 2.3-63.88a102.56 102.56 0 0 0-13.15-1.66 145.27 145.27 0 0 0-16.7 0 73.5 73.5 0 0 0-11.3 2.04z" opacity=".4"/><path d="M325.16 169.9c-.26 2.07-.46 4.52-.59 7.41a41.08 41.08 0 0 0 10.94-5.14z" fill="#fff"/><path d="M325.16 169.9c-.26 2.07-.46 4.52-.59 7.41a41.08 41.08 0 0 0 10.94-5.14z" opacity=".6"/><path d="M342 171c-5.26 4.66-25.34 4.19-25.34 4.19l-.66-19.44a148.17 148.17 0 0 0 20.47 1.48c11.19-.23 11.27 8.63 5.53 13.77z" fill="#fff"/><path d="M342 171c-5.26 4.66-25.34 4.19-25.34 4.19l-.66-19.44a148.17 148.17 0 0 0 20.47 1.48c11.19-.23 11.27 8.63 5.53 13.77z" opacity=".4"/><path d="m274.77 134.24-5-5.89-5.39 6s3.32 5.58 8.59 4.7zm-12.16-12.76-1.94 7.69 3.67 5.14 5.39-5.96-7.12-6.87z" fill="#e4897b"/><path d="m338.75 392.64.38 8.76h7.35l-.38-8.76h-7.35zm48.5 0h-7.35l1.9 8.76h7.35l-1.9-8.76z" fill="#ce6f64"/><path d="M343.17 123c-6.59-3-8.67-16.33 10.29-13 0 0-2.86 3.16 2.94 5.16s.95 14.35-13.23 7.84z" fill="#263238"/><path d="M357.49 133c-1.89 7-2.63 11.26-7 14.19-6.54 4.4-14.67-.65-14.93-8.12-.23-6.71 2.9-17.1 10.45-18.52A9.94 9.94 0 0 1 357.49 133z" fill="#e4897b"/><path d="M353.2 113.5c4.49 2.5 10.57 4 10 7.56-.75 4.35 3.67 1.63 2.64 8.1-.67 4.23-8.47 17.05-14 16.43-8.26-1-7.21-13.56-7.24-20.18-.02-3.91-.2-16.84 8.6-11.91z" fill="#263238"/><path d="M343.61 119.11c-2 .47-4.65 12 3.1 13.06 8.91 1.21-3.1-13.06-3.1-13.06z" fill="#263238"/><path d="M343.81 123.2c-2.45.22-8-2.73-7.32-7.17 0-.03 3.51 5.19 7.32 7.17z" fill="#263238"/><path d="M347.45 133.09a8.21 8.21 0 0 1-3.63 3.85c-2.11 1.1-3.3-.5-2.82-2.62.43-1.9 2.05-4.77 4.22-5s3.1 1.77 2.23 3.77z" fill="#e4897b"/><path d="M358.45 125a9.85 9.85 0 0 0 5.78-7.33s3.3 9.17-5.78 7.33z" fill="#263238"/><path d="M366.79 124.85a5.07 5.07 0 0 0-4.78-.47s3.08-3.99 4.78.47z" fill="#263238"/><path d="M341.57 222.78s8.34 56.14 12.91 77.17c5 23 23.9 99.76 23.9 99.76h13.45s-12.45-74.87-15.31-97.71c-3.1-24.75-9.6-79.26-9.6-79.26z" fill="#fff"/><path d="M341.57 222.78s8.34 56.14 12.91 77.17c5 23 23.9 99.76 23.9 99.76h13.45s-12.45-74.87-15.31-97.71c-3.1-24.75-9.6-79.26-9.6-79.26z" fill="#fff" opacity=".5"/><path d="M376.23 394.75c-.06 0 1.39 5.17 1.39 5.17h15.14l-.28-4.61z" fill="#fff"/><path d="M376.23 394.75c-.06 0 1.39 5.17 1.39 5.17h15.14l-.28-4.61z" opacity=".1"/><path d="M346.84 242.78c9.64 1.89 8.62 37.84 7.46 56.33-2.78-13.07-6.85-38.22-9.63-56.07a3.29 3.29 0 0 1 2.17-.26z" fill="#fff"/><path d="M346.84 242.78c9.64 1.89 8.62 37.84 7.46 56.33-2.78-13.07-6.85-38.22-9.63-56.07a3.29 3.29 0 0 1 2.17-.26z" fill="#fff" opacity=".4"/><path d="M327.63 222.78s-1 54.92-.21 77.33c.83 23.3 9 99.6 9 99.6h12.44s.46-74.94 1-97.82c.61-24.95 3.62-79.11 3.62-79.11z" fill="#fff"/><path d="M327.63 222.78s-1 54.92-.21 77.33c.83 23.3 9 99.6 9 99.6h12.44s.46-74.94 1-97.82c.61-24.95 3.62-79.11 3.62-79.11z" fill="#fff" opacity=".5"/><path d="M339 390.77a.12.12 0 0 1-.12-.11c-2.2-21.12-7.37-72.22-8-90.55-.67-18.71-.06-60.69.14-73.11a.12.12 0 0 1 .12-.12.13.13 0 0 1 .13.12c-.2 12.42-.81 54.4-.14 73.1.65 18.33 5.82 69.41 8 90.53a.14.14 0 0 1-.12.14z" fill="#fff"/><path d="M339 390.77a.12.12 0 0 1-.12-.11c-2.2-21.12-7.37-72.22-8-90.55-.67-18.71-.06-60.69.14-73.11a.12.12 0 0 1 .12-.12.13.13 0 0 1 .13.12c-.2 12.42-.81 54.4-.14 73.1.65 18.33 5.82 69.41 8 90.53a.14.14 0 0 1-.12.14z" fill="#fff" opacity=".4"/><path d="M334 394.75c-.05 0 .71 5.17.71 5.17h15.13l.41-4.61z" fill="#fff"/><path d="M334 394.75c-.05 0 .71 5.17.71 5.17h15.13l.41-4.61z" opacity=".1"/></svg>